HIERARCHY
ROOT Hips
{
	OFFSET -0.001795 -0.223333 0.028219
	CHANNELS 6 Xposition Yposition Zposition Zrotation Yrotation Xrotation 
	JOINT LeftUpLeg
	{
		OFFSET 0.069520 -0.091406 -0.006815
		CHANNELS 3 Zrotation Yrotation Xrotation
		JOINT LeftLeg
		{
			OFFSET 0.034277 -0.375199 -0.004496
			CHANNELS 3 Zrotation Yrotation Xrotation
			JOINT LeftFoot
			{
				OFFSET -0.013596 -0.397961 -0.043693
				CHANNELS 3 Zrotation Yrotation Xrotation
				JOINT LeftToe
				{
					OFFSET 0.026358 -0.055791 0.119288
					CHANNELS 3 Zrotation Yrotation Xrotation
					End Site
					{
						OFFSET 0.000000 0.000000 0.000000
					}
				}
			}
		}
	}
	JOINT RightUpLeg
	{
		OFFSET -0.067670 -0.090522 -0.004320
		CHANNELS 3 Zrotation Yrotation Xrotation
		JOINT RightLeg
		{
			OFFSET -0.038290 -0.382569 -0.008850
			CHANNELS 3 Zrotation Yrotation Xrotation
			JOINT RightFoot
			{
				OFFSET 0.015774 -0.398415 -0.042312
				CHANNELS 3 Zrotation Yrotation Xrotation
				JOINT RightToe
				{
					OFFSET -0.025372 -0.048144 0.123348
					CHANNELS 3 Zrotation Yrotation Xrotation
					End Site
					{
						OFFSET 0.000000 0.000000 0.000000
					}
				}
			}
		}
	}
	JOINT Spine
	{
		OFFSET -0.002533 0.108963 -0.026696
		CHANNELS 3 Zrotation Yrotation Xrotation
		JOINT Spine1
		{
			OFFSET 0.005487 0.135180 0.001092
			CHANNELS 3 Zrotation Yrotation Xrotation
			JOINT Spine2
			{
				OFFSET 0.001457 0.052922 0.025425
				CHANNELS 3 Zrotation Yrotation Xrotation
				JOINT Neck
				{
					OFFSET -0.002778 0.213870 -0.042857
					CHANNELS 3 Zrotation Yrotation Xrotation
					JOINT Head
					{
						OFFSET 0.005152 0.064970 0.051349
						CHANNELS 3 Zrotation Yrotation Xrotation
						End Site
						{
							OFFSET 0.000000 0.000000 0.000000
						}
					}
				}
				JOINT LeftShoulder
				{
					OFFSET 0.078845 0.121749 -0.034090
					CHANNELS 3 Zrotation Yrotation Xrotation
					JOINT LeftArm
					{
						OFFSET 0.090977 0.030469 -0.008868
						CHANNELS 3 Zrotation Yrotation Xrotation
						JOINT LeftForeArm
						{
							OFFSET 0.259612 -0.012772 -0.027456
							CHANNELS 3 Zrotation Yrotation Xrotation
							JOINT LeftHand
							{
								OFFSET 0.249234 0.008986 -0.001171
								CHANNELS 3 Zrotation Yrotation Xrotation
								End Site
								{
									OFFSET 0.000000 0.000000 0.000000
								}
							}
						}
					}
				}
				JOINT RightShoulder
				{
					OFFSET -0.081759 0.118833 -0.038615
					CHANNELS 3 Zrotation Yrotation Xrotation
					JOINT RightArm
					{
						OFFSET -0.096012 0.032551 -0.009143
						CHANNELS 3 Zrotation Yrotation Xrotation
						JOINT RightForeArm
						{
							OFFSET -0.253742 -0.013329 -0.021401
							CHANNELS 3 Zrotation Yrotation Xrotation
							JOINT RightHand
							{
								OFFSET -0.255298 0.007772 -0.005559
								CHANNELS 3 Zrotation Yrotation Xrotation
								End Site
								{
									OFFSET 0.000000 0.000000 0.000000
								}
							}
						}
					}
				}
			}
		}
	}
}
MOTION
Frames: 7
Frame Time: 0.050000
0.067275 0.937649 -0.000494 0.397413 5.339112 7.192227 9.097129 -0.492604 -7.818058 -3.298678 0.330868 -3.978341 -0.186587 5.501137 13.788939 0.000000 0.000000 0.000000 -11.197857 0.314748 -7.911382 6.838046 -0.882935 3.127448 -12.415673 -26.232647 17.507170 0.000000 0.000000 0.000000 -4.328470 0.080074 8.365335 8.006472 -2.598049 -9.725234 4.157598 11.024796 26.342684 -2.121265 4.479272 -15.476030 0.000000 0.000000 0.000000 -26.902303 -3.401261 -4.987082 -41.674172 -18.774805 0.619929 -28.400456 -48.627040 13.622860 0.000000 0.000000 0.000000 14.884238 16.848066 10.649279 30.933947 29.977150 1.900990 -35.787680 49.645710 -11.985665 0.000000 0.000000 0.000000 
0.067176 0.937588 -0.000588 0.467088 5.206467 7.314383 9.001186 -0.498454 -8.087449 -3.325938 0.332448 -3.603373 0.004528 5.701933 13.535585 0.000000 0.000000 0.000000 -11.172504 0.323351 -8.009869 6.815534 -0.870725 2.906071 -12.409305 -26.268105 17.294115 0.000000 0.000000 0.000000 -4.424560 0.097302 7.963318 8.033667 -2.660975 -9.276040 4.089742 11.161149 26.562747 -2.404754 4.698245 -15.600280 0.000000 0.000000 0.000000 -26.653684 -3.428800 -4.936156 -41.501766 -19.499727 0.820666 -28.728212 -48.814417 13.816965 0.000000 0.000000 0.000000 15.158172 16.837507 10.743278 32.095106 28.947612 1.787478 -33.041942 50.063694 -10.870619 0.000000 0.000000 0.000000 
0.066914 0.937677 -0.000717 0.420964 5.040047 7.499394 9.015812 -0.501489 -8.275652 -3.070415 0.318470 -3.793891 -0.078474 5.664747 13.881759 0.000000 0.000000 0.000000 -11.045726 0.341002 -8.037465 6.838830 -0.854960 2.328332 -12.558610 -26.455977 17.642650 0.000000 0.000000 0.000000 -4.387000 0.098945 7.826464 8.180809 -2.719682 -9.251350 4.139472 11.322668 26.729703 -2.540436 4.861660 -16.388863 0.000000 0.000000 0.000000 -26.546931 -3.446255 -4.928949 -41.470106 -19.867277 0.921985 -29.089388 -49.209872 14.102239 0.000000 0.000000 0.000000 15.287479 16.684811 10.726453 33.026530 28.189675 1.699221 -29.959186 49.741642 -9.423107 0.000000 0.000000 0.000000 
0.066596 0.937988 -0.000866 0.359916 4.828017 7.555382 9.061375 -0.499078 -8.430152 -3.119238 0.323026 -3.813767 0.019374 5.826768 13.991105 0.000000 0.000000 0.000000 -10.781949 0.362053 -7.739736 6.647120 -0.808094 1.664957 -12.209825 -25.942061 17.544340 0.000000 0.000000 0.000000 -4.370755 0.100402 7.728625 8.157879 -2.715964 -9.226651 4.087580 11.244471 26.746661 -3.112927 5.220414 -16.594238 0.000000 0.000000 0.000000 -26.496477 -3.280567 -4.949946 -41.189554 -20.242060 1.008742 -29.508035 -49.538698 14.431348 0.000000 0.000000 0.000000 15.195671 16.671762 10.658828 34.105155 27.123146 1.564950 -27.695356 49.867909 -8.454029 0.000000 0.000000 0.000000 
0.066213 0.938338 -0.000960 0.150035 4.492059 7.502531 9.355870 -0.483394 -8.506195 -3.067311 0.320857 -3.545624 -0.060133 5.639970 13.938154 0.000000 0.000000 0.000000 -10.596515 0.379997 -7.545164 6.848799 -0.820057 1.305674 -12.042072 -25.739579 17.326628 0.000000 0.000000 0.000000 -4.200093 0.083924 7.791690 7.957680 -2.623634 -9.413469 4.234196 11.251054 26.870199 -3.545579 5.524141 -17.314023 0.000000 0.000000 0.000000 -26.454553 -3.098551 -4.975154 -40.880183 -20.330817 0.987493 -30.038949 -49.969061 14.857063 0.000000 0.000000 0.000000 15.126640 16.359662 10.439462 35.012355 26.364417 1.463782 -26.162151 50.433381 -7.850826 0.000000 0.000000 0.000000 
0.065867 0.938738 -0.000960 -0.043765 4.137417 7.678769 9.532995 -0.476040 -8.735539 -2.979309 0.317369 -3.544004 0.008561 5.655834 13.798135 0.000000 0.000000 0.000000 -10.346631 0.406293 -7.575144 6.889759 -0.804504 0.731371 -11.813049 -25.386893 17.466718 0.000000 0.000000 0.000000 -4.012969 0.072362 7.559577 8.015266 -2.615966 -9.693404 4.041602 11.244069 27.029245 -3.784252 5.665778 -17.631907 0.000000 0.000000 0.000000 -26.284627 -2.912459 -4.975364 -40.839323 -20.148162 0.884727 -30.177751 -50.434078 15.105316 0.000000 0.000000 0.000000 14.943844 15.823053 10.084527 36.445499 24.919116 1.209189 -25.160290 52.350157 -7.617997 0.000000 0.000000 0.000000 
0.065463 0.938983 -0.000875 -0.255914 3.974485 7.545969 9.710048 -0.463489 -8.739506 -2.758018 0.302365 -3.358280 -0.152919 5.347147 13.694589 0.000000 0.000000 0.000000 -10.165825 0.413078 -7.218969 6.992456 -0.806152 0.393192 -11.532084 -24.975538 17.341575 0.000000 0.000000 0.000000 -4.100022 0.079756 7.541107 7.905755 -2.579220 -9.698536 3.936549 10.957576 26.944133 -3.837845 5.662061 -18.088116 0.000000 0.000000 0.000000 -26.396362 -2.670527 -5.011014 -40.792397 -20.035209 0.827560 -29.360696 -50.777370 14.881656 0.000000 0.000000 0.000000 14.904889 15.033670 9.586720 38.114976 23.360037 0.926994 -24.647478 54.621532 -7.623900 0.000000 0.000000 0.000000 
